<svg xmlns="http://www.w3.org/2000/svg" viewBox="0 0 499 420"><title>WeatherMaps</title><g id="Planet"><path d="M453.56,327.36h0a210.24,210.24,0,0,1-62,89S375.5,420.5,342.5,398.5s-103,4-105-53,41-28,27-76-97-18-128-64-58-52-62.55-54.25l.11-.19A210.31,210.31,0,0,1,284.64,47.94h0A13,13,0,0,1,289.5,61.5c-2,9-20,21-16,36s14,15,26,34-2,9-29-7-43-1-67,14,9,52,45,67,18-27,48-30,16,27,9,47,23,41,84,41c59.85,0,63.87,62.56,64.05,63.85Z" transform="translate(-11 -46)" style="fill:#009245"/><path d="M256,465.5c-115.52,0-209.5-94-209.5-209.5A209.41,209.41,0,0,1,74.16,151.89c.47.21,1.09.44,1.87.73,8,3,32.51,12.28,60.06,53.16,15.19,22.55,42.32,26.91,68.54,31.12,26.89,4.31,52.29,8.39,59.39,32.74,6.87,23.55,0,28.16-8.69,34S236,316.62,237,345.52c1.28,36.61,30.92,39.45,59.58,42.2,16.56,1.58,33.69,3.23,45.64,11.2,23.84,15.88,38.89,18.26,45.74,18.26h0c.77,0,1.43,0,2-.08A209.52,209.52,0,0,1,256,465.5Z" transform="translate(-11 -46)" style="fill:aqua"/><path d="M74.37,152.52c.41.17.9.35,1.48.57,8,3,32.36,12.22,59.82,53,15.32,22.73,42.55,27.1,68.88,31.33,26.73,4.29,52,8.34,59,32.39,6.77,23.2,0,27.72-8.49,33.44-8.72,5.86-19.57,13.14-18.55,42.32.58,16.63,7,27.83,19.64,34.23,11.14,5.64,26,7.07,40.39,8.44,16.5,1.59,33.57,3.22,45.42,11.12,23.94,16,39.1,18.35,46,18.35h.48A209,209,0,0,1,74.37,152.52M74,151.25A209,209,0,0,0,46,256c0,116,94,210,210,210a209.07,209.07,0,0,0,135.57-49.63,16,16,0,0,1-3.61.31c-6.43,0-21.47-2.19-45.46-18.18-33-22-103,4-105-53s41-28,27-76-97-18-128-64-58-52-62.55-54.25Z" transform="translate(-11 -46)" style="fill:#29abe2"/><path d="M453.82,325.15C452.13,311.21,442.43,263,389.5,263c-47,0-72.56-12.48-80.84-24.15-3.66-5.16-4.59-10.75-2.69-16.18.66-1.9,1.39-3.88,2.13-5.91,5-13.57,10.59-28.95,5-36.87-2.36-3.38-6.64-5.1-12.72-5.1-1.24,0-2.58.07-4,.21-13.89,1.39-17.73,11-21.12,19.48-2.95,7.37-5.49,13.75-13.88,13.75h0c-3.43,0-7.6-1-12.75-3.19-27.28-11.37-51.46-34.83-52.81-51.25-.51-6.27,2.14-11.28,7.89-14.87,2.88-1.8,5.65-3.6,8.33-5.35,12.73-8.28,23.72-15.44,36.27-15.44,7,0,14.16,2.23,21.88,6.8,3.21,1.9,6.24,3.72,9.06,5.42,12,7.23,20,12,23.19,12a1.66,1.66,0,0,0,1.61-.8c.54-1,.46-3-4.19-10.33a81.75,81.75,0,0,0-14.81-17.4c-5-4.7-9-8.4-11.13-16.46-2.49-9.36,3.77-17.49,9.3-24.67,3.2-4.15,6-7.74,6.71-11.09a13.51,13.51,0,0,0-3.7-12.93A209.69,209.69,0,0,1,453.82,325.15Z" transform="translate(-11 -46)" style="fill:aqua"/><path d="M287.6,49.38A209.19,209.19,0,0,1,454,323c-2.39-16.21-13.59-60.49-64.53-60.49-20.46,0-38.84-2.44-53.16-7.06-13-4.19-22.41-10-27.28-16.88-3.55-5-4.46-10.46-2.62-15.73.66-1.89,1.38-3.83,2.13-5.9,5-13.68,10.68-29.19,5-37.33-2.46-3.52-6.88-5.31-13.13-5.31-1.26,0-2.61.07-4,.21-14.19,1.42-18.09,11.18-21.53,19.79-2.88,7.21-5.37,13.44-13.42,13.44-3.37,0-7.48-1-12.57-3.15a120.89,120.89,0,0,1-35.71-23.29C203,171.55,197,161.77,196.38,153.75c-.5-6.07,2.08-10.92,7.65-14.4,2.89-1.81,5.66-3.61,8.35-5.36,12.65-8.24,23.59-15.36,36-15.36,6.91,0,14,2.2,21.62,6.73,3.21,1.9,6.24,3.72,9.06,5.42,12.12,7.27,20.13,12.08,23.45,12.08a2.16,2.16,0,0,0,2.05-1.05c.74-1.35.31-3.7-4.2-10.84a82.1,82.1,0,0,0-14.9-17.51c-5.15-4.82-8.87-8.3-11-16.22C272,88.12,278.22,80.09,283.68,73c3.23-4.2,6-7.82,6.8-11.28a13.94,13.94,0,0,0-2.88-12.34M284.66,48A13,13,0,0,1,289.5,61.5c-2,9-20,21-16,36s14,15,26,34c4.64,7.35,5.4,10.36,3,10.36-3.78,0-15.45-7.55-32-17.36-8.22-4.87-15.42-6.87-22.13-6.87-15.35,0-28.18,10.44-44.87,20.87-24,15,9,52,45,67,5.43,2.26,9.62,3.23,12.95,3.23,18.71,0,9.57-30.68,35.05-33.23q2.12-.21,3.93-.21c24.77,0,11.74,28.15,5.07,47.21-7,20,23,41,84,41,59.85,0,63.87,62.56,64.05,63.85h0A209.6,209.6,0,0,0,466,256c0-106.26-78.92-194.08-181.34-208Z" transform="translate(-11 -46)" style="fill:#29abe2"/></g><g id="Clouds"><path d="M259.5,231.5a18,18,0,0,1-18,18H71.5a18,18,0,0,1,0-36h4.07c11.07,0,11.93-13,.7-13H43a30.5,30.5,0,0,1,0-61H206a30.5,30.5,0,0,1,0,61h-4.32c-13.82,0-14.18,13-.84,13H241.5a18,18,0,0,1,18,18Z" transform="translate(-11 -46)" style="fill:#e6e6e6;stroke:#999;stroke-miterlimit:10;stroke-width:3px"/><path d="M508.5,272.5a24,24,0,0,1-24,24H408.77c-4.72,0-4.27,12,.84,12H430.5a24,24,0,0,1,0,48h-179a24,24,0,0,1,0-48h62.71c4.71,0,5.29-12-1.71-12h-7a24,24,0,0,1,0-48h179A24,24,0,0,1,508.5,272.5Z" transform="translate(-11 -46)" style="fill:#e6e6e6;stroke:#999;stroke-miterlimit:10;stroke-width:3px"/><rect x="46.5" y="333.5" width="206" height="36" rx="18" style="fill:#e6e6e6;stroke:#999;stroke-miterlimit:10;stroke-width:3px"/></g></svg>